<svg width="55" height="55" viewBox="0 0 55 55" fill="none" xmlns="http://www.w3.org/2000/svg">
<g clip-path="url(#clip0_143_74)">
<rect width="55" height="55" rx="27.5" fill="white"/>
<mask id="mask0_143_74" style="mask-type:luminance" maskUnits="userSpaceOnUse" x="0" y="0" width="55" height="55">
<path d="M55 0H0V55H55V0Z" fill="white"/>
</mask>
<g mask="url(#mask0_143_74)">
<path d="M25.699 0.0148029C25.5807 0.0255555 25.2042 0.0631899 24.8655 0.0900716C17.0538 0.794372 9.73656 5.00942 5.10214 11.4879C2.5215 15.0901 0.870969 19.1761 0.247312 23.504C0.0268817 25.0149 0 25.4611 0 27.5094C0 29.5579 0.0268817 30.0041 0.247312 31.5148C1.74193 41.8428 9.09141 50.5202 19.0592 53.7352C20.8441 54.3104 22.7258 54.703 24.8655 54.9395C25.699 55.0309 29.301 55.0309 30.1345 54.9395C33.828 54.5309 36.957 53.617 40.043 52.0417C40.5162 51.7997 40.6074 51.7353 40.543 51.6814C40.4999 51.6491 38.484 48.9449 36.0644 45.6761L31.6667 39.7352L26.1559 31.5794C23.1236 27.0955 20.629 23.4288 20.6075 23.4288C20.586 23.4233 20.5645 27.0472 20.5538 31.4717C20.5376 39.2191 20.5323 39.531 20.4355 39.7137C20.2957 39.9772 20.1882 40.0847 19.9624 40.2029C19.7903 40.2891 19.6398 40.3051 18.828 40.3051H17.8978L17.6505 40.1493C17.4892 40.0471 17.371 39.9126 17.2903 39.7567L17.1774 39.5147L17.1882 28.7352L17.2043 17.9503L17.371 17.7406C17.457 17.6277 17.6398 17.4825 17.7688 17.4127C17.9892 17.3051 18.0753 17.2944 19.0054 17.2944C20.1022 17.2944 20.2849 17.3374 20.5699 17.6492C20.6505 17.7352 23.6344 22.2298 27.2044 27.6439C30.7741 33.0577 35.6558 40.4502 38.0538 44.0793L42.4087 50.6761L42.6291 50.531C44.5807 49.2621 46.6453 47.4556 48.2795 45.5739C51.758 41.5793 53.9999 36.7084 54.7527 31.5148C54.9732 30.0041 55 29.5579 55 27.5094C55 25.4611 54.9732 25.0149 54.7527 23.504C53.2581 13.1761 45.9085 4.49868 35.9409 1.28362C34.1827 0.713728 32.3118 0.321255 30.2152 0.0846954C29.6989 0.030932 26.1452 -0.0282079 25.699 0.0148029ZM36.957 16.6492C37.2151 16.7782 37.4248 17.0255 37.4999 17.2836C37.543 17.4234 37.5538 20.4126 37.543 27.1491L37.527 36.8158L35.8226 34.2029L34.1128 31.5902V24.5632C34.1128 20.0202 34.1344 17.4664 34.1667 17.3428C34.2526 17.0417 34.4408 16.8051 34.6988 16.6653C34.9193 16.5524 34.9999 16.5417 35.8442 16.5417C36.6399 16.5417 36.7796 16.5524 36.957 16.6492Z" fill="black"/>
</g>
</g>
<defs>
<clipPath id="clip0_143_74">
<rect width="55" height="55" rx="27.5" fill="white"/>
</clipPath>
</defs>
</svg>
