<svg width="100" height="100" viewBox="0 0 100 100" fill="none" xmlns="http://www.w3.org/2000/svg">
<g clip-path="url(#clip0_170_4)">
<path d="M18 22.5V87L24.5 97.5L93 87V18.5L70.5 3L8 8L18 22.5Z" fill="white" stroke="black"/>
<path d="M18.5791 17.5333C21.6875 20.0583 22.8541 19.8666 28.6958 19.4749L83.7583 16.1708C84.925 16.1708 83.9541 15.0041 83.5666 14.8124L74.4166 8.19994C72.6666 6.84161 70.3291 5.28328 65.8541 5.67078L12.5416 9.56244C10.6 9.75411 10.2083 10.7291 10.9833 11.5041L18.5791 17.5333ZM21.8833 30.3666V88.2999C21.8833 91.4124 23.4375 92.5791 26.9416 92.3833L87.4541 88.8833C90.9583 88.6916 91.35 86.5499 91.35 84.0208V26.4749C91.35 23.9499 90.3791 22.5874 88.2333 22.7791L24.9958 26.4749C22.6625 26.6708 21.8833 27.8416 21.8833 30.3666ZM81.6208 33.4708C82.0083 35.2208 81.6208 36.9708 79.8708 37.1708L76.9541 37.7541V80.5208C74.4208 81.8833 72.0875 82.6624 70.1416 82.6624C67.025 82.6624 66.2458 81.6874 63.9125 78.7749L44.8416 48.8333V77.7999L50.875 79.1666C50.875 79.1666 50.875 82.6666 46.0083 82.6666L32.5833 83.4416C32.1958 82.6666 32.5833 80.7208 33.9458 80.3333L37.4458 79.3624V41.0583L32.5916 40.6666C32.2 38.9166 33.175 36.3916 35.8958 36.1958L50.2958 35.2249L70.1458 65.5541V38.7208L65.0833 38.1416C64.6958 35.9999 66.25 34.4458 68.1958 34.2541L81.6208 33.4708ZM8.06664 4.31244L63.525 0.22911C70.3333 -0.354224 72.0875 0.0332763 76.3666 3.14578L94.0708 15.5874C96.9875 17.7249 97.9625 18.3083 97.9625 20.6416V88.8833C97.9625 93.1583 96.4083 95.6916 90.9625 96.0749L26.5541 99.9666C22.4708 100.162 20.5208 99.5791 18.3791 96.8541L5.34164 79.9374C3.00831 76.8249 2.03748 74.4958 2.03748 71.7708V11.1124C2.03748 7.61661 3.59581 4.69578 8.06664 4.31244Z" fill="black"/>
</g>
<defs>
<clipPath id="clip0_170_4">
<rect width="100" height="100" fill="white"/>
</clipPath>
</defs>
</svg>
