<svg width="60" height="60" viewBox="0 0 60 60" fill="none" xmlns="http://www.w3.org/2000/svg">
<g clip-path="url(#clip0_143_80)">
<path d="M58.8654 35.9285C58.5166 34.8721 57.6028 34.1362 56.4209 33.9595C55.8636 33.8763 55.2254 33.9118 54.4702 34.0675C53.154 34.3391 52.1774 34.4424 51.4647 34.4625C54.1547 29.9205 56.3423 24.7408 57.6016 19.8651C59.6378 11.9814 58.5497 8.38982 57.2781 6.76517C53.913 2.46535 49.0033 0.155281 43.0799 0.0844687C39.9203 0.0459047 37.1463 0.66978 35.6994 1.1183C34.3521 0.88074 32.9033 0.747983 31.3832 0.723394C28.5342 0.677977 26.0166 1.29903 23.8655 2.57554C22.6743 2.17297 20.7632 1.60526 18.5559 1.24286C13.3644 0.390561 9.18046 1.05475 6.12007 3.21675C2.41417 5.83453 0.696128 10.3827 1.01391 16.7349C1.11469 18.7518 2.24299 24.8881 4.01934 30.7077C5.04028 34.0526 6.12894 36.8304 7.25509 38.9644C8.85206 41.9906 10.5608 43.7727 12.4792 44.4126C13.5546 44.7709 15.5082 45.0217 17.5631 43.3106C17.8235 43.6258 18.1708 43.9393 18.6321 44.2304C19.2177 44.5997 19.9339 44.9015 20.649 45.0804C23.2266 45.7248 25.6409 45.5636 27.7007 44.6605C27.7133 45.0268 27.7231 45.3768 27.7315 45.679C27.7452 46.1693 27.7586 46.6499 27.7766 47.0994C27.8986 50.1391 28.1054 52.5025 28.7181 54.1561C28.7517 54.2472 28.797 54.3857 28.8448 54.5326C29.1504 55.4686 29.6617 57.0353 30.962 58.2625C32.3087 59.5335 33.9376 59.9235 35.4293 59.9233C36.1775 59.9233 36.8914 59.8252 37.5174 59.691C39.7494 59.2128 42.2842 58.484 44.1178 55.8732C45.8513 53.4049 46.694 49.6875 46.8465 43.8298C46.8663 43.6643 46.8846 43.5061 46.9022 43.3554C46.914 43.2536 46.9261 43.1496 46.9383 43.0459L47.3468 43.0818L47.452 43.0889C49.7253 43.1925 52.5048 42.7104 54.2118 41.9175C55.5608 41.2914 59.8832 39.0096 58.8654 35.9285Z" fill="black"/>
<path d="M54.9785 36.5277C48.2195 37.9219 47.7548 35.6335 47.7548 35.6335C54.8913 25.0441 57.8746 11.6025 55.3001 8.31276C48.2766 -0.661081 36.1186 3.58297 35.9157 3.69315L35.8504 3.70484C34.515 3.42764 33.0206 3.2625 31.341 3.23509C28.2826 3.18497 25.9627 4.03687 24.2023 5.37182C24.2023 5.37182 2.5137 -3.56305 3.52241 16.6091C3.73699 20.9006 9.67329 49.0803 16.7539 40.5687C19.3418 37.4563 21.8423 34.8247 21.8423 34.8247C23.0843 35.6498 24.5711 36.0706 26.1297 35.9194L26.2508 35.8166C26.2132 36.2031 26.2304 36.5811 26.2993 37.0285C24.4753 39.0665 25.0112 39.4243 21.3649 40.1749C17.6752 40.9353 19.8427 42.2891 21.2579 42.6429C22.9735 43.0719 26.9427 43.6796 29.6245 39.9254L29.5176 40.3537C30.2323 40.9262 30.7342 44.0772 30.65 46.9337C30.5659 49.7902 30.5098 51.7513 31.0729 53.2831C31.636 54.815 32.1973 58.2615 36.9908 57.2344C40.9962 56.376 43.0718 54.1517 43.3606 50.4414C43.5655 47.8036 44.0292 48.1935 44.0585 45.8352L44.4304 44.7187C44.8593 41.143 44.4985 39.9895 46.9662 40.526L47.5659 40.5787C49.3822 40.6613 51.7593 40.2866 53.1545 39.6381C56.1587 38.2439 57.9404 35.9161 54.9782 36.5277H54.9785Z" fill="#336791"/>
<path d="M25.4719 18.5285C24.8629 18.4437 24.3112 18.5221 24.0321 18.7334C23.875 18.8523 23.8265 18.99 23.8135 19.0849C23.7784 19.336 23.9545 19.6136 24.0625 19.7569C24.3683 20.1622 24.8152 20.4409 25.2576 20.5023C25.3217 20.5112 25.3854 20.5155 25.4488 20.5155C26.1865 20.5155 26.857 19.9412 26.9161 19.5173C26.99 18.9864 26.2192 18.6325 25.4719 18.5285Z" fill="white"/>
<path d="M45.6501 18.5452C45.5921 18.1291 44.8513 18.0104 44.1486 18.1081C43.4469 18.206 42.7663 18.5227 42.8232 18.9397C42.8688 19.2641 43.4543 19.8178 44.1476 19.8177C44.2061 19.8177 44.2652 19.8138 44.3247 19.8055C44.7875 19.7414 45.127 19.4475 45.2883 19.2781C45.534 19.0201 45.6761 18.7323 45.6501 18.5452Z" fill="white"/>
<path d="M57.2277 36.3695C56.97 35.5901 56.1406 35.3393 54.7623 35.624C50.6703 36.4685 49.2048 35.8835 48.7235 35.5291C51.9043 30.6835 54.5209 24.8265 55.9324 19.3616C56.6012 16.773 56.9706 14.369 57.0007 12.4096C57.034 10.2586 56.6678 8.6783 55.9123 7.71285C52.8663 3.82072 48.3959 1.73303 42.9845 1.67565C39.2643 1.63386 36.1212 2.586 35.5118 2.85366C34.2286 2.53454 32.8297 2.33863 31.3069 2.31363C28.514 2.26849 26.1001 2.93711 24.1013 4.29988C23.2332 3.97686 20.9895 3.20665 18.2458 2.76471C13.502 2.00082 9.73256 2.57955 7.04249 4.48531C3.83268 6.75937 2.35086 10.8243 2.63801 16.567C2.73462 18.4992 3.83537 24.4427 5.57276 30.1349C7.85959 37.6266 10.3453 41.8679 12.9609 42.7402C13.267 42.8423 13.6201 42.9138 14.0093 42.9138C14.9634 42.9138 16.1331 42.4837 17.3502 41.0205C19.3718 38.5885 21.2593 36.5505 21.955 35.81C22.9832 36.362 24.1126 36.6701 25.268 36.701C25.2701 36.7312 25.2732 36.7614 25.2758 36.7915C25.0441 37.0665 24.8539 37.3074 24.6919 37.5131C23.8914 38.5292 23.7248 38.7407 21.1482 39.2713C20.4153 39.4225 18.4684 39.8237 18.4401 41.1882C18.409 42.6791 20.741 43.3052 21.0068 43.3716C21.9327 43.6034 22.8247 43.7177 23.6754 43.7177C25.7444 43.7176 27.565 43.0377 29.02 41.7221C28.9752 47.037 29.1969 52.2743 29.835 53.8701C30.3575 55.1763 31.6345 58.3689 35.6678 58.3687C36.2594 58.3687 36.911 58.2999 37.6276 58.1463C41.8368 57.2437 43.6647 55.3834 44.3718 51.2819C44.7502 49.0899 45.3996 43.8554 45.7049 41.0478C46.3495 41.2488 47.1793 41.3409 48.0764 41.3407C49.9473 41.3407 52.1061 40.9433 53.46 40.3148C54.9808 39.6086 57.7254 37.8752 57.2277 36.3695ZM47.2037 17.3966C47.1897 18.2255 47.0756 18.978 46.9547 19.7635C46.8246 20.6083 46.69 21.4817 46.6561 22.542C46.6227 23.5738 46.7515 24.6466 46.8762 25.6839C47.128 27.7793 47.3864 29.9366 46.386 32.0652C46.2306 31.7891 46.0805 31.4879 45.9429 31.1542C45.8186 30.8528 45.5486 30.3687 45.175 29.6986C43.7206 27.0905 40.3148 20.9829 42.0583 18.4906C42.5775 17.7486 43.8954 16.9861 47.2037 17.3966ZM43.1937 3.35419C48.0423 3.46128 51.8776 5.27513 54.5932 8.74508C56.6759 11.4067 54.3825 23.5173 47.7432 33.9652C47.6776 33.8819 47.6108 33.7978 47.5417 33.7115C47.5142 33.677 47.4861 33.6419 47.4578 33.6065C49.1734 30.773 48.8379 27.9697 48.5393 25.4841C48.4166 24.4641 48.3008 23.5007 48.3302 22.5958C48.3607 21.6364 48.4876 20.814 48.6101 20.0185C48.761 19.0382 48.9143 18.0239 48.872 16.8282C48.9036 16.7028 48.9163 16.5546 48.8998 16.3787C48.7918 15.232 47.4828 11.8006 44.8144 8.69442C43.3551 6.99573 41.2265 5.09454 38.3204 3.81225C39.5704 3.55319 41.2799 3.31159 43.1937 3.35419ZM16.0623 39.9496C14.7214 41.5618 13.7953 41.2529 13.4909 41.1514C11.5066 40.4895 9.20449 36.296 7.17471 29.6459C5.41837 23.8918 4.39193 18.1058 4.31077 16.4833C4.05426 11.352 5.29811 7.77574 8.00793 5.85399C12.4179 2.72655 19.6685 4.59845 22.5819 5.5479C22.54 5.58915 22.4964 5.62785 22.4549 5.66977C17.6742 10.4981 17.7876 18.7472 17.7993 19.2514C17.7989 19.446 17.8151 19.7214 17.8376 20.1003C17.9198 21.4877 18.0729 24.07 17.664 26.9944C17.2838 29.7119 18.1215 32.3717 19.9618 34.2919C20.1523 34.4906 20.3512 34.6772 20.5567 34.8529C19.7374 35.7302 17.9572 37.67 16.0623 39.9496ZM21.1711 33.1329C19.6878 31.5854 19.0142 29.4327 19.3228 27.2263C19.7546 24.1371 19.5951 21.4466 19.5095 20.0012C19.4976 19.799 19.487 19.6217 19.4806 19.4818C20.1791 18.8627 23.4156 17.1284 25.7237 17.6572C26.7771 17.8986 27.4188 18.6157 27.6856 19.8495C29.0667 26.2364 27.8685 28.8986 26.9057 31.0377C26.7073 31.4784 26.5198 31.895 26.3597 32.326L26.2356 32.6591C25.9215 33.5015 25.6292 34.2846 25.4481 35.0283C23.8714 35.0235 22.3375 34.35 21.1711 33.1329ZM21.4131 41.7467C20.9528 41.6316 20.5387 41.4318 20.2957 41.2662C20.4986 41.1706 20.8598 41.0408 21.4861 40.9118C24.5173 40.2877 24.9853 39.8474 26.0076 38.5494C26.2421 38.2519 26.5077 37.9145 26.8756 37.5036L26.876 37.503C27.4241 36.8895 27.6747 36.9935 28.1293 37.182C28.4977 37.3345 28.8565 37.7962 29.002 38.3044C29.0708 38.5444 29.1482 39 28.8952 39.3544C26.7597 42.3443 23.648 42.3059 21.4131 41.7467ZM37.2765 56.5086C33.5683 57.3031 32.2554 55.4111 31.3902 53.2481C30.8317 51.8516 30.5574 45.5547 30.7521 38.601C30.7546 38.5084 30.7414 38.419 30.7159 38.335C30.6937 38.1728 30.6596 38.0088 30.6123 37.8436C30.3226 36.8318 29.617 35.9855 28.7705 35.6346C28.4342 35.4953 27.8168 35.2396 27.0749 35.4293C27.2332 34.7775 27.5076 34.0415 27.8049 33.2445L27.9298 32.9091C28.0703 32.5311 28.2465 32.1395 28.433 31.7251C29.4405 29.4868 30.8203 26.4212 29.3228 19.4954C28.7618 16.9014 26.8887 15.6347 24.0491 15.9289C22.3466 16.105 20.7893 16.7919 20.0125 17.1857C19.8454 17.2704 19.6927 17.3521 19.55 17.4318C19.7667 14.818 20.586 9.93357 23.6501 6.84322C25.5792 4.89755 28.1487 3.93668 31.2792 3.98841C37.4474 4.08946 41.4028 7.25492 43.6351 9.89272C45.5586 12.1658 46.6002 14.4555 47.016 15.6903C43.8899 15.3726 41.7637 15.9897 40.6858 17.5305C38.3411 20.8822 41.9686 27.3878 43.7121 30.5143C44.0317 31.0874 44.3077 31.5826 44.3946 31.793C44.9623 33.1689 45.6973 34.0875 46.2339 34.7581C46.3984 34.9636 46.558 35.1628 46.6794 35.3369C45.7326 35.6099 44.0319 36.2405 44.1868 39.3929C44.0619 40.9748 43.1729 48.3807 42.7214 50.9973C42.1253 54.4541 40.8533 55.7417 37.2765 56.5086ZM52.7547 38.7957C51.7866 39.2451 50.1664 39.5822 48.6272 39.6545C46.9271 39.7342 46.0618 39.4641 45.8582 39.2981C45.7626 37.3336 46.4939 37.1283 47.2678 36.911C47.3894 36.8767 47.508 36.8435 47.6225 36.8035C47.6937 36.8614 47.7716 36.9189 47.857 36.9752C49.2234 37.8771 51.6606 37.9744 55.1011 37.2642C55.1137 37.2616 55.1263 37.2591 55.1388 37.2566C54.6749 37.6905 53.8807 38.2728 52.7547 38.7957Z" fill="white"/>
</g>
<defs>
<clipPath id="clip0_143_80">
<rect width="60" height="60" fill="white"/>
</clipPath>
</defs>
</svg>
